<?xml version="1.0" encoding="UTF-8"?>
<svg id="Livello_2" data-name="Livello 2" xmlns="http://www.w3.org/2000/svg" viewBox="0 0 253.15 253.15">
  <defs>
    <style>
      .cls-1 {
        fill: #ff5e2a;
      }
    </style>
  </defs>
  <g id="Livello_1-2" data-name="Livello 1">
    <path id="qr-path" class="cls-1" d="M0,0h8.73v8.73H0V0ZM8.73,0h8.73v8.73h-8.73V0ZM17.46,0h8.73v8.73h-8.73V0ZM26.19,0h8.73v8.73h-8.73V0ZM34.92,0h8.73v8.73h-8.73V0ZM43.65,0h8.73v8.73h-8.73V0ZM52.38,0h8.73v8.73h-8.73V0ZM69.83,0h8.73v8.73h-8.73V0ZM78.56,0h8.73v8.73h-8.73V0ZM87.29,0h8.73v8.73h-8.73V0ZM96.02,0h8.73v8.73h-8.73V0ZM113.48,0h8.73v8.73h-8.73V0ZM122.21,0h8.73v8.73h-8.73V0ZM157.13,0h8.73v8.73h-8.73V0ZM192.05,0h8.73v8.73h-8.73V0ZM200.78,0h8.73v8.73h-8.73V0ZM209.5,0h8.73v8.73h-8.73V0ZM218.23,0h8.73v8.73h-8.73V0ZM226.96,0h8.73v8.73h-8.73V0ZM235.69,0h8.73v8.73h-8.73V0ZM244.42,0h8.73v8.73h-8.73V0ZM0,8.73h8.73v8.73H0v-8.73ZM52.38,8.73h8.73v8.73h-8.73v-8.73ZM96.02,8.73h8.73v8.73h-8.73v-8.73ZM104.75,8.73h8.73v8.73h-8.73v-8.73ZM113.48,8.73h8.73v8.73h-8.73v-8.73ZM122.21,8.73h8.73v8.73h-8.73v-8.73ZM148.4,8.73h8.73v8.73h-8.73v-8.73ZM157.13,8.73h8.73v8.73h-8.73v-8.73ZM165.86,8.73h8.73v8.73h-8.73v-8.73ZM174.59,8.73h8.73v8.73h-8.73v-8.73ZM192.05,8.73h8.73v8.73h-8.73v-8.73ZM244.42,8.73h8.73v8.73h-8.73v-8.73ZM0,17.46h8.73v8.73H0v-8.73ZM17.46,17.46h8.73v8.73h-8.73v-8.73ZM26.19,17.46h8.73v8.73h-8.73v-8.73ZM34.92,17.46h8.73v8.73h-8.73v-8.73ZM52.38,17.46h8.73v8.73h-8.73v-8.73ZM78.56,17.46h8.73v8.73h-8.73v-8.73ZM96.02,17.46h8.73v8.73h-8.73v-8.73ZM113.48,17.46h8.73v8.73h-8.73v-8.73ZM122.21,17.46h8.73v8.73h-8.73v-8.73ZM174.59,17.46h8.73v8.73h-8.73v-8.73ZM192.05,17.46h8.73v8.73h-8.73v-8.73ZM209.5,17.46h8.73v8.73h-8.73v-8.73ZM218.23,17.46h8.73v8.73h-8.73v-8.73ZM226.96,17.46h8.73v8.73h-8.73v-8.73ZM244.42,17.46h8.73v8.73h-8.73v-8.73ZM0,26.19h8.73v8.73H0v-8.73ZM17.46,26.19h8.73v8.73h-8.73v-8.73ZM26.19,26.19h8.73v8.73h-8.73v-8.73ZM34.92,26.19h8.73v8.73h-8.73v-8.73ZM52.38,26.19h8.73v8.73h-8.73v-8.73ZM87.29,26.19h8.73v8.73h-8.73v-8.73ZM96.02,26.19h8.73v8.73h-8.73v-8.73ZM113.48,26.19h8.73v8.73h-8.73v-8.73ZM130.94,26.19h8.73v8.73h-8.73v-8.73ZM139.67,26.19h8.73v8.73h-8.73v-8.73ZM148.4,26.19h8.73v8.73h-8.73v-8.73ZM157.13,26.19h8.73v8.73h-8.73v-8.73ZM165.86,26.19h8.73v8.73h-8.73v-8.73ZM174.59,26.19h8.73v8.73h-8.73v-8.73ZM192.05,26.19h8.73v8.73h-8.73v-8.73ZM209.5,26.19h8.73v8.73h-8.73v-8.73ZM218.23,26.19h8.73v8.73h-8.73v-8.73ZM226.96,26.19h8.73v8.73h-8.73v-8.73ZM244.42,26.19h8.73v8.73h-8.73v-8.73ZM0,34.92h8.73v8.73H0v-8.73ZM17.46,34.92h8.73v8.73h-8.73v-8.73ZM26.19,34.92h8.73v8.73h-8.73v-8.73ZM34.92,34.92h8.73v8.73h-8.73v-8.73ZM52.38,34.92h8.73v8.73h-8.73v-8.73ZM87.29,34.92h8.73v8.73h-8.73v-8.73ZM96.02,34.92h8.73v8.73h-8.73v-8.73ZM104.75,34.92h8.73v8.73h-8.73v-8.73ZM157.13,34.92h8.73v8.73h-8.73v-8.73ZM165.86,34.92h8.73v8.73h-8.73v-8.73ZM192.05,34.92h8.73v8.73h-8.73v-8.73ZM209.5,34.92h8.73v8.73h-8.73v-8.73ZM218.23,34.92h8.73v8.73h-8.73v-8.73ZM226.96,34.92h8.73v8.73h-8.73v-8.73ZM244.42,34.92h8.73v8.73h-8.73v-8.73ZM0,43.65h8.73v8.73H0v-8.73ZM52.38,43.65h8.73v8.73h-8.73v-8.73ZM78.56,43.65h8.73v8.73h-8.73v-8.73ZM96.02,43.65h8.73v8.73h-8.73v-8.73ZM139.67,43.65h8.73v8.73h-8.73v-8.73ZM148.4,43.65h8.73v8.73h-8.73v-8.73ZM174.59,43.65h8.73v8.73h-8.73v-8.73ZM192.05,43.65h8.73v8.73h-8.73v-8.73ZM244.42,43.65h8.73v8.73h-8.73v-8.73ZM0,52.38h8.73v8.73H0v-8.73ZM8.73,52.38h8.73v8.73h-8.73v-8.73ZM17.46,52.38h8.73v8.73h-8.73v-8.73ZM26.19,52.38h8.73v8.73h-8.73v-8.73ZM34.92,52.38h8.73v8.73h-8.73v-8.73ZM43.65,52.38h8.73v8.73h-8.73v-8.73ZM52.38,52.38h8.73v8.73h-8.73v-8.73ZM69.83,52.38h8.73v8.73h-8.73v-8.73ZM87.29,52.38h8.73v8.73h-8.73v-8.73ZM104.75,52.38h8.73v8.73h-8.73v-8.73ZM122.21,52.38h8.73v8.73h-8.73v-8.73ZM139.67,52.38h8.73v8.73h-8.73v-8.73ZM157.13,52.38h8.73v8.73h-8.73v-8.73ZM174.59,52.38h8.73v8.73h-8.73v-8.73ZM192.05,52.38h8.73v8.73h-8.73v-8.73ZM200.78,52.38h8.73v8.73h-8.73v-8.73ZM209.5,52.38h8.73v8.73h-8.73v-8.73ZM218.23,52.38h8.73v8.73h-8.73v-8.73ZM226.96,52.38h8.73v8.73h-8.73v-8.73ZM235.69,52.38h8.73v8.73h-8.73v-8.73ZM244.42,52.38h8.73v8.73h-8.73v-8.73ZM69.83,61.11h8.73v8.73h-8.73v-8.73ZM78.56,61.11h8.73v8.73h-8.73v-8.73ZM104.75,61.11h8.73v8.73h-8.73v-8.73ZM113.48,61.11h8.73v8.73h-8.73v-8.73ZM122.21,61.11h8.73v8.73h-8.73v-8.73ZM139.67,61.11h8.73v8.73h-8.73v-8.73ZM165.86,61.11h8.73v8.73h-8.73v-8.73ZM174.59,61.11h8.73v8.73h-8.73v-8.73ZM0,69.83h8.73v8.73H0v-8.73ZM8.73,69.83h8.73v8.73h-8.73v-8.73ZM26.19,69.83h8.73v8.73h-8.73v-8.73ZM34.92,69.83h8.73v8.73h-8.73v-8.73ZM52.38,69.83h8.73v8.73h-8.73v-8.73ZM78.56,69.83h8.73v8.73h-8.73v-8.73ZM104.75,69.83h8.73v8.73h-8.73v-8.73ZM122.21,69.83h8.73v8.73h-8.73v-8.73ZM139.67,69.83h8.73v8.73h-8.73v-8.73ZM148.4,69.83h8.73v8.73h-8.73v-8.73ZM192.05,69.83h8.73v8.73h-8.73v-8.73ZM244.42,69.83h8.73v8.73h-8.73v-8.73ZM17.46,78.56h8.73v8.73h-8.73v-8.73ZM34.92,78.56h8.73v8.73h-8.73v-8.73ZM61.11,78.56h8.73v8.73h-8.73v-8.73ZM69.83,78.56h8.73v8.73h-8.73v-8.73ZM87.29,78.56h8.73v8.73h-8.73v-8.73ZM130.94,78.56h8.73v8.73h-8.73v-8.73ZM165.86,78.56h8.73v8.73h-8.73v-8.73ZM200.78,78.56h8.73v8.73h-8.73v-8.73ZM209.5,78.56h8.73v8.73h-8.73v-8.73ZM226.96,78.56h8.73v8.73h-8.73v-8.73ZM235.69,78.56h8.73v8.73h-8.73v-8.73ZM8.73,87.29h8.73v8.73h-8.73v-8.73ZM17.46,87.29h8.73v8.73h-8.73v-8.73ZM34.92,87.29h8.73v8.73h-8.73v-8.73ZM52.38,87.29h8.73v8.73h-8.73v-8.73ZM69.83,87.29h8.73v8.73h-8.73v-8.73ZM78.56,87.29h8.73v8.73h-8.73v-8.73ZM104.75,87.29h8.73v8.73h-8.73v-8.73ZM122.21,87.29h8.73v8.73h-8.73v-8.73ZM130.94,87.29h8.73v8.73h-8.73v-8.73ZM139.67,87.29h8.73v8.73h-8.73v-8.73ZM148.4,87.29h8.73v8.73h-8.73v-8.73ZM174.59,87.29h8.73v8.73h-8.73v-8.73ZM200.78,87.29h8.73v8.73h-8.73v-8.73ZM226.96,87.29h8.73v8.73h-8.73v-8.73ZM17.46,96.02h8.73v8.73h-8.73v-8.73ZM34.92,96.02h8.73v8.73h-8.73v-8.73ZM148.4,96.02h8.73v8.73h-8.73v-8.73ZM157.13,96.02h8.73v8.73h-8.73v-8.73ZM174.59,96.02h8.73v8.73h-8.73v-8.73ZM183.32,96.02h8.73v8.73h-8.73v-8.73ZM192.05,96.02h8.73v8.73h-8.73v-8.73ZM209.5,96.02h8.73v8.73h-8.73v-8.73ZM218.23,96.02h8.73v8.73h-8.73v-8.73ZM244.42,96.02h8.73v8.73h-8.73v-8.73ZM52.38,104.75h8.73v8.73h-8.73v-8.73ZM61.11,104.75h8.73v8.73h-8.73v-8.73ZM69.83,104.75h8.73v8.73h-8.73v-8.73ZM78.56,104.75h8.73v8.73h-8.73v-8.73ZM87.29,104.75h8.73v8.73h-8.73v-8.73ZM113.48,104.75h8.73v8.73h-8.73v-8.73ZM122.21,104.75h8.73v8.73h-8.73v-8.73ZM130.94,104.75h8.73v8.73h-8.73v-8.73ZM139.67,104.75h8.73v8.73h-8.73v-8.73ZM174.59,104.75h8.73v8.73h-8.73v-8.73ZM192.05,104.75h8.73v8.73h-8.73v-8.73ZM244.42,104.75h8.73v8.73h-8.73v-8.73ZM8.73,113.48h8.73v8.73h-8.73v-8.73ZM26.19,113.48h8.73v8.73h-8.73v-8.73ZM34.92,113.48h8.73v8.73h-8.73v-8.73ZM43.65,113.48h8.73v8.73h-8.73v-8.73ZM61.11,113.48h8.73v8.73h-8.73v-8.73ZM78.56,113.48h8.73v8.73h-8.73v-8.73ZM87.29,113.48h8.73v8.73h-8.73v-8.73ZM104.75,113.48h8.73v8.73h-8.73v-8.73ZM122.21,113.48h8.73v8.73h-8.73v-8.73ZM130.94,113.48h8.73v8.73h-8.73v-8.73ZM139.67,113.48h8.73v8.73h-8.73v-8.73ZM183.32,113.48h8.73v8.73h-8.73v-8.73ZM192.05,113.48h8.73v8.73h-8.73v-8.73ZM200.78,113.48h8.73v8.73h-8.73v-8.73ZM209.5,113.48h8.73v8.73h-8.73v-8.73ZM218.23,113.48h8.73v8.73h-8.73v-8.73ZM226.96,113.48h8.73v8.73h-8.73v-8.73ZM235.69,113.48h8.73v8.73h-8.73v-8.73ZM244.42,113.48h8.73v8.73h-8.73v-8.73ZM0,122.21h8.73v8.73H0v-8.73ZM26.19,122.21h8.73v8.73h-8.73v-8.73ZM43.65,122.21h8.73v8.73h-8.73v-8.73ZM52.38,122.21h8.73v8.73h-8.73v-8.73ZM69.83,122.21h8.73v8.73h-8.73v-8.73ZM122.21,122.21h8.73v8.73h-8.73v-8.73ZM130.94,122.21h8.73v8.73h-8.73v-8.73ZM148.4,122.21h8.73v8.73h-8.73v-8.73ZM157.13,122.21h8.73v8.73h-8.73v-8.73ZM165.86,122.21h8.73v8.73h-8.73v-8.73ZM174.59,122.21h8.73v8.73h-8.73v-8.73ZM183.32,122.21h8.73v8.73h-8.73v-8.73ZM192.05,122.21h8.73v8.73h-8.73v-8.73ZM200.78,122.21h8.73v8.73h-8.73v-8.73ZM209.5,122.21h8.73v8.73h-8.73v-8.73ZM226.96,122.21h8.73v8.73h-8.73v-8.73ZM244.42,122.21h8.73v8.73h-8.73v-8.73ZM17.46,130.94h8.73v8.73h-8.73v-8.73ZM34.92,130.94h8.73v8.73h-8.73v-8.73ZM43.65,130.94h8.73v8.73h-8.73v-8.73ZM61.11,130.94h8.73v8.73h-8.73v-8.73ZM78.56,130.94h8.73v8.73h-8.73v-8.73ZM104.75,130.94h8.73v8.73h-8.73v-8.73ZM113.48,130.94h8.73v8.73h-8.73v-8.73ZM122.21,130.94h8.73v8.73h-8.73v-8.73ZM130.94,130.94h8.73v8.73h-8.73v-8.73ZM139.67,130.94h8.73v8.73h-8.73v-8.73ZM157.13,130.94h8.73v8.73h-8.73v-8.73ZM226.96,130.94h8.73v8.73h-8.73v-8.73ZM244.42,130.94h8.73v8.73h-8.73v-8.73ZM17.46,139.67h8.73v8.73h-8.73v-8.73ZM26.19,139.67h8.73v8.73h-8.73v-8.73ZM52.38,139.67h8.73v8.73h-8.73v-8.73ZM69.83,139.67h8.73v8.73h-8.73v-8.73ZM78.56,139.67h8.73v8.73h-8.73v-8.73ZM96.02,139.67h8.73v8.73h-8.73v-8.73ZM104.75,139.67h8.73v8.73h-8.73v-8.73ZM130.94,139.67h8.73v8.73h-8.73v-8.73ZM165.86,139.67h8.73v8.73h-8.73v-8.73ZM174.59,139.67h8.73v8.73h-8.73v-8.73ZM200.78,139.67h8.73v8.73h-8.73v-8.73ZM218.23,139.67h8.73v8.73h-8.73v-8.73ZM0,148.4h8.73v8.73H0v-8.73ZM8.73,148.4h8.73v8.73h-8.73v-8.73ZM26.19,148.4h8.73v8.73h-8.73v-8.73ZM61.11,148.4h8.73v8.73h-8.73v-8.73ZM96.02,148.4h8.73v8.73h-8.73v-8.73ZM130.94,148.4h8.73v8.73h-8.73v-8.73ZM148.4,148.4h8.73v8.73h-8.73v-8.73ZM157.13,148.4h8.73v8.73h-8.73v-8.73ZM165.86,148.4h8.73v8.73h-8.73v-8.73ZM183.32,148.4h8.73v8.73h-8.73v-8.73ZM209.5,148.4h8.73v8.73h-8.73v-8.73ZM226.96,148.4h8.73v8.73h-8.73v-8.73ZM235.69,148.4h8.73v8.73h-8.73v-8.73ZM0,157.13h8.73v8.73H0v-8.73ZM8.73,157.13h8.73v8.73h-8.73v-8.73ZM34.92,157.13h8.73v8.73h-8.73v-8.73ZM52.38,157.13h8.73v8.73h-8.73v-8.73ZM61.11,157.13h8.73v8.73h-8.73v-8.73ZM69.83,157.13h8.73v8.73h-8.73v-8.73ZM104.75,157.13h8.73v8.73h-8.73v-8.73ZM113.48,157.13h8.73v8.73h-8.73v-8.73ZM122.21,157.13h8.73v8.73h-8.73v-8.73ZM130.94,157.13h8.73v8.73h-8.73v-8.73ZM139.67,157.13h8.73v8.73h-8.73v-8.73ZM148.4,157.13h8.73v8.73h-8.73v-8.73ZM165.86,157.13h8.73v8.73h-8.73v-8.73ZM183.32,157.13h8.73v8.73h-8.73v-8.73ZM192.05,157.13h8.73v8.73h-8.73v-8.73ZM200.78,157.13h8.73v8.73h-8.73v-8.73ZM218.23,157.13h8.73v8.73h-8.73v-8.73ZM244.42,157.13h8.73v8.73h-8.73v-8.73ZM0,165.86h8.73v8.73H0v-8.73ZM8.73,165.86h8.73v8.73h-8.73v-8.73ZM17.46,165.86h8.73v8.73h-8.73v-8.73ZM26.19,165.86h8.73v8.73h-8.73v-8.73ZM34.92,165.86h8.73v8.73h-8.73v-8.73ZM43.65,165.86h8.73v8.73h-8.73v-8.73ZM61.11,165.86h8.73v8.73h-8.73v-8.73ZM69.83,165.86h8.73v8.73h-8.73v-8.73ZM78.56,165.86h8.73v8.73h-8.73v-8.73ZM96.02,165.86h8.73v8.73h-8.73v-8.73ZM113.48,165.86h8.73v8.73h-8.73v-8.73ZM130.94,165.86h8.73v8.73h-8.73v-8.73ZM165.86,165.86h8.73v8.73h-8.73v-8.73ZM174.59,165.86h8.73v8.73h-8.73v-8.73ZM183.32,165.86h8.73v8.73h-8.73v-8.73ZM192.05,165.86h8.73v8.73h-8.73v-8.73ZM200.78,165.86h8.73v8.73h-8.73v-8.73ZM218.23,165.86h8.73v8.73h-8.73v-8.73ZM226.96,165.86h8.73v8.73h-8.73v-8.73ZM0,174.59h8.73v8.73H0v-8.73ZM8.73,174.59h8.73v8.73h-8.73v-8.73ZM43.65,174.59h8.73v8.73h-8.73v-8.73ZM52.38,174.59h8.73v8.73h-8.73v-8.73ZM69.83,174.59h8.73v8.73h-8.73v-8.73ZM87.29,174.59h8.73v8.73h-8.73v-8.73ZM96.02,174.59h8.73v8.73h-8.73v-8.73ZM113.48,174.59h8.73v8.73h-8.73v-8.73ZM130.94,174.59h8.73v8.73h-8.73v-8.73ZM148.4,174.59h8.73v8.73h-8.73v-8.73ZM174.59,174.59h8.73v8.73h-8.73v-8.73ZM183.32,174.59h8.73v8.73h-8.73v-8.73ZM192.05,174.59h8.73v8.73h-8.73v-8.73ZM200.78,174.59h8.73v8.73h-8.73v-8.73ZM209.5,174.59h8.73v8.73h-8.73v-8.73ZM218.23,174.59h8.73v8.73h-8.73v-8.73ZM226.96,174.59h8.73v8.73h-8.73v-8.73ZM235.69,174.59h8.73v8.73h-8.73v-8.73ZM69.83,183.32h8.73v8.73h-8.73v-8.73ZM104.75,183.32h8.73v8.73h-8.73v-8.73ZM113.48,183.32h8.73v8.73h-8.73v-8.73ZM130.94,183.32h8.73v8.73h-8.73v-8.73ZM157.13,183.32h8.73v8.73h-8.73v-8.73ZM165.86,183.32h8.73v8.73h-8.73v-8.73ZM174.59,183.32h8.73v8.73h-8.73v-8.73ZM209.5,183.32h8.73v8.73h-8.73v-8.73ZM218.23,183.32h8.73v8.73h-8.73v-8.73ZM0,192.05h8.73v8.73H0v-8.73ZM8.73,192.05h8.73v8.73h-8.73v-8.73ZM17.46,192.05h8.73v8.73h-8.73v-8.73ZM26.19,192.05h8.73v8.73h-8.73v-8.73ZM34.92,192.05h8.73v8.73h-8.73v-8.73ZM43.65,192.05h8.73v8.73h-8.73v-8.73ZM52.38,192.05h8.73v8.73h-8.73v-8.73ZM87.29,192.05h8.73v8.73h-8.73v-8.73ZM96.02,192.05h8.73v8.73h-8.73v-8.73ZM113.48,192.05h8.73v8.73h-8.73v-8.73ZM130.94,192.05h8.73v8.73h-8.73v-8.73ZM139.67,192.05h8.73v8.73h-8.73v-8.73ZM148.4,192.05h8.73v8.73h-8.73v-8.73ZM165.86,192.05h8.73v8.73h-8.73v-8.73ZM174.59,192.05h8.73v8.73h-8.73v-8.73ZM192.05,192.05h8.73v8.73h-8.73v-8.73ZM209.5,192.05h8.73v8.73h-8.73v-8.73ZM218.23,192.05h8.73v8.73h-8.73v-8.73ZM0,200.78h8.73v8.73H0v-8.73ZM52.38,200.78h8.73v8.73h-8.73v-8.73ZM87.29,200.78h8.73v8.73h-8.73v-8.73ZM96.02,200.78h8.73v8.73h-8.73v-8.73ZM104.75,200.78h8.73v8.73h-8.73v-8.73ZM113.48,200.78h8.73v8.73h-8.73v-8.73ZM148.4,200.78h8.73v8.73h-8.73v-8.73ZM165.86,200.78h8.73v8.73h-8.73v-8.73ZM174.59,200.78h8.73v8.73h-8.73v-8.73ZM209.5,200.78h8.73v8.73h-8.73v-8.73ZM235.69,200.78h8.73v8.73h-8.73v-8.73ZM0,209.5h8.73v8.73H0v-8.73ZM17.46,209.5h8.73v8.73h-8.73v-8.73ZM26.19,209.5h8.73v8.73h-8.73v-8.73ZM34.92,209.5h8.73v8.73h-8.73v-8.73ZM52.38,209.5h8.73v8.73h-8.73v-8.73ZM69.83,209.5h8.73v8.73h-8.73v-8.73ZM87.29,209.5h8.73v8.73h-8.73v-8.73ZM96.02,209.5h8.73v8.73h-8.73v-8.73ZM104.75,209.5h8.73v8.73h-8.73v-8.73ZM113.48,209.5h8.73v8.73h-8.73v-8.73ZM130.94,209.5h8.73v8.73h-8.73v-8.73ZM139.67,209.5h8.73v8.73h-8.73v-8.73ZM157.13,209.5h8.73v8.73h-8.73v-8.73ZM165.86,209.5h8.73v8.73h-8.73v-8.73ZM174.59,209.5h8.73v8.73h-8.73v-8.73ZM183.32,209.5h8.73v8.73h-8.73v-8.73ZM192.05,209.5h8.73v8.73h-8.73v-8.73ZM200.78,209.5h8.73v8.73h-8.73v-8.73ZM209.5,209.5h8.73v8.73h-8.73v-8.73ZM218.23,209.5h8.73v8.73h-8.73v-8.73ZM244.42,209.5h8.73v8.73h-8.73v-8.73ZM0,218.23h8.73v8.73H0v-8.73ZM17.46,218.23h8.73v8.73h-8.73v-8.73ZM26.19,218.23h8.73v8.73h-8.73v-8.73ZM34.92,218.23h8.73v8.73h-8.73v-8.73ZM52.38,218.23h8.73v8.73h-8.73v-8.73ZM69.83,218.23h8.73v8.73h-8.73v-8.73ZM78.56,218.23h8.73v8.73h-8.73v-8.73ZM113.48,218.23h8.73v8.73h-8.73v-8.73ZM122.21,218.23h8.73v8.73h-8.73v-8.73ZM130.94,218.23h8.73v8.73h-8.73v-8.73ZM139.67,218.23h8.73v8.73h-8.73v-8.73ZM148.4,218.23h8.73v8.73h-8.73v-8.73ZM157.13,218.23h8.73v8.73h-8.73v-8.73ZM165.86,218.23h8.73v8.73h-8.73v-8.73ZM174.59,218.23h8.73v8.73h-8.73v-8.73ZM183.32,218.23h8.73v8.73h-8.73v-8.73ZM244.42,218.23h8.73v8.73h-8.73v-8.73ZM0,226.96h8.73v8.73H0v-8.73ZM17.46,226.96h8.73v8.73h-8.73v-8.73ZM26.19,226.96h8.73v8.73h-8.73v-8.73ZM34.92,226.96h8.73v8.73h-8.73v-8.73ZM52.38,226.96h8.73v8.73h-8.73v-8.73ZM78.56,226.96h8.73v8.73h-8.73v-8.73ZM96.02,226.96h8.73v8.73h-8.73v-8.73ZM104.75,226.96h8.73v8.73h-8.73v-8.73ZM113.48,226.96h8.73v8.73h-8.73v-8.73ZM130.94,226.96h8.73v8.73h-8.73v-8.73ZM139.67,226.96h8.73v8.73h-8.73v-8.73ZM148.4,226.96h8.73v8.73h-8.73v-8.73ZM183.32,226.96h8.73v8.73h-8.73v-8.73ZM200.78,226.96h8.73v8.73h-8.73v-8.73ZM209.5,226.96h8.73v8.73h-8.73v-8.73ZM226.96,226.96h8.73v8.73h-8.73v-8.73ZM235.69,226.96h8.73v8.73h-8.73v-8.73ZM244.42,226.96h8.73v8.73h-8.73v-8.73ZM0,235.69h8.73v8.73H0v-8.73ZM52.38,235.69h8.73v8.73h-8.73v-8.73ZM69.83,235.69h8.73v8.73h-8.73v-8.73ZM87.29,235.69h8.73v8.73h-8.73v-8.73ZM96.02,235.69h8.73v8.73h-8.73v-8.73ZM130.94,235.69h8.73v8.73h-8.73v-8.73ZM157.13,235.69h8.73v8.73h-8.73v-8.73ZM165.86,235.69h8.73v8.73h-8.73v-8.73ZM200.78,235.69h8.73v8.73h-8.73v-8.73ZM209.5,235.69h8.73v8.73h-8.73v-8.73ZM218.23,235.69h8.73v8.73h-8.73v-8.73ZM226.96,235.69h8.73v8.73h-8.73v-8.73ZM244.42,235.69h8.73v8.73h-8.73v-8.73ZM0,244.42h8.73v8.73H0v-8.73ZM8.73,244.42h8.73v8.73h-8.73v-8.73ZM17.46,244.42h8.73v8.73h-8.73v-8.73ZM26.19,244.42h8.73v8.73h-8.73v-8.73ZM34.92,244.42h8.73v8.73h-8.73v-8.73ZM43.65,244.42h8.73v8.73h-8.73v-8.73ZM52.38,244.42h8.73v8.73h-8.73v-8.73ZM69.83,244.42h8.73v8.73h-8.73v-8.73ZM122.21,244.42h8.73v8.73h-8.73v-8.73ZM130.94,244.42h8.73v8.73h-8.73v-8.73ZM139.67,244.42h8.73v8.73h-8.73v-8.73ZM165.86,244.42h8.73v8.73h-8.73v-8.73ZM174.59,244.42h8.73v8.73h-8.73v-8.73ZM209.5,244.42h8.73v8.73h-8.73v-8.73ZM218.23,244.42h8.73v8.73h-8.73v-8.73Z"/>
  </g>
</svg>